<svg width="26" height="25" viewBox="0 0 26 25" fill="none" xmlns="http://www.w3.org/2000/svg">
<path d="M16.8573 1L15.6333 4.42" stroke="white" stroke-opacity="0.5" stroke-width="2" stroke-miterlimit="10" stroke-linecap="round" stroke-linejoin="round"/>
<path d="M24.5488 4.28796L20.4448 7.35996" stroke="white" stroke-opacity="0.5" stroke-width="2" stroke-miterlimit="10" stroke-linecap="round" stroke-linejoin="round"/>
<path d="M24.9211 13.132L20.9971 12.844" stroke="white" stroke-opacity="0.5" stroke-width="2" stroke-miterlimit="10" stroke-linecap="round" stroke-linejoin="round"/>
<path d="M12.585 19.6666H15.741" stroke="white" stroke-opacity="0.8" stroke-width="2" stroke-miterlimit="10" stroke-linecap="round" stroke-linejoin="round"/>
<path fill-rule="evenodd" clip-rule="evenodd" d="M5.43308 8.39224C5.37308 3.06424 8.91308 1.00024 11.7211 1.00024V8.79412C13.5228 7.4888 16.0746 7.79078 17.5293 9.70006C19.186 11.8809 17.404 14.5802 15.8678 16.004C16.3603 16.0662 16.7411 16.4866 16.7411 16.996C16.7411 17.5483 16.2934 17.996 15.7411 17.996H12.5851C12.2166 17.996 11.8946 17.7966 11.7211 17.4998V25.0002L10.2811 22.0842C10.2811 22.0842 5.36108 22.4682 5.25308 21.9642C4.94108 20.3562 4.36508 17.1402 4.20908 16.0362L1.23309 14.5602C0.993088 14.5602 0.837088 14.3442 0.969088 14.1762L5.43308 8.39224ZM11.7211 16.4923C11.8758 16.2275 12.1488 16.0402 12.4676 16.0029C12.2203 15.7732 11.9663 15.5106 11.7211 15.2225V16.4923Z" fill="white" fill-opacity="0.8"/>
<path d="M14.121 12.736C14.4523 12.736 14.721 12.4674 14.721 12.136C14.721 11.8047 14.4523 11.536 14.121 11.536C13.7897 11.536 13.521 11.8047 13.521 12.136C13.521 12.4674 13.7897 12.736 14.121 12.736Z" stroke="white" stroke-opacity="0.8" stroke-width="3" stroke-miterlimit="10" stroke-linecap="round" stroke-linejoin="round"/>
</svg>
