<svg width="32" height="32" viewBox="0 0 32 32" fill="none" xmlns="http://www.w3.org/2000/svg">
<path d="M31.6014 13.25C31.6014 11.5931 30.2583 10.25 28.6014 10.25H3.76807C2.11121 10.25 0.768066 11.5931 0.768066 13.25V28.8333C0.768066 30.4902 2.11121 31.8333 3.76807 31.8333H28.6014C30.2583 31.8333 31.6014 30.4902 31.6014 28.8333V13.25Z" fill="white" fill-opacity="0.5"/>
<path d="M16.1847 23.354C11.4981 23.354 7.70557 27.1465 7.70557 31.8332C7.72098 31.8332 24.6639 31.8332 24.6639 31.8332C24.6639 27.1465 20.8714 23.354 16.1847 23.354Z" fill="white" fill-opacity="0.8"/>
<path d="M15.9022 22.018C18.2437 22.018 20.1418 20.1199 20.1418 17.7784C20.1418 15.4369 18.2437 13.5388 15.9022 13.5388C13.5607 13.5388 11.6626 15.4369 11.6626 17.7784C11.6626 20.1199 13.5607 22.018 15.9022 22.018Z" fill="white" fill-opacity="0.8"/>
<path d="M10.0181 1H22.3514" stroke="#97A0A9" stroke-width="2" stroke-miterlimit="10" stroke-linecap="round" stroke-linejoin="round"/>
<path d="M5.39307 5.625H26.9764" stroke="#97A0A9" stroke-width="2" stroke-miterlimit="10" stroke-linecap="round" stroke-linejoin="round"/>
</svg>
