<svg width="43" height="88" viewBox="0 0 43 88" fill="none" xmlns="http://www.w3.org/2000/svg">
<path d="M42.7687 61.1392C42.7687 64.1682 42.0461 67.0654 40.6008 69.831C39.2211 72.5966 37.0203 74.8683 33.9982 76.6462C31.0418 78.4241 27.3628 79.313 22.9611 79.313V87.2147H19.8076V79.2143C14.1577 78.6875 9.55891 76.7779 6.01128 73.4855C2.46364 70.1273 0.525576 66.1436 0.197091 61.5343H4.82873C5.22291 64.6949 6.66825 67.6581 9.16473 70.4237C11.7269 73.1892 15.2746 74.8354 19.8076 75.3622V44.9408C15.4716 43.6897 11.9897 42.4715 9.36182 41.2862C6.73394 40.101 4.50025 38.2902 2.66073 35.8538C0.88691 33.4175 0 30.1581 0 26.0755C0 22.7832 0.755516 19.82 2.26655 17.1861C3.84328 14.5522 6.10982 12.4781 9.06619 10.9636C12.0882 9.38323 15.6687 8.59307 19.8076 8.59307V0H22.9611V8.69184C28.2169 9.21862 32.4215 10.9636 35.5749 13.9267C38.7284 16.8898 40.6664 20.4127 41.3891 24.4952H36.7575C36.1662 21.7954 34.7209 19.2603 32.4215 16.8898C30.1221 14.5193 26.9686 13.0707 22.9611 12.5439V41.6813C27.1657 42.8666 30.6148 44.0847 33.3084 45.3358C36.002 46.5869 38.2357 48.4965 40.0095 51.0646C41.849 53.5668 42.7687 56.925 42.7687 61.1392ZM4.53309 25.878C4.53309 28.9069 5.19006 31.3762 6.504 33.2858C7.88364 35.1954 9.62461 36.7099 11.7269 37.8293C13.8949 38.8828 16.5885 39.8705 19.8076 40.7924V12.3464C15.1432 12.4122 11.4313 13.6304 8.672 16.0009C5.91273 18.3055 4.53309 21.5979 4.53309 25.878ZM22.9611 75.5597C27.8884 75.4939 31.666 74.1111 34.2938 71.4114C36.9874 68.7116 38.3342 65.3534 38.3342 61.3367C38.3342 56.8591 36.9874 53.5338 34.2938 51.3609C31.666 49.1879 27.8884 47.3771 22.9611 45.9285V75.5597Z" fill="white"/>
</svg>
