<svg width="65" height="80" viewBox="0 0 65 80" fill="none" xmlns="http://www.w3.org/2000/svg">
<path d="M16.7959 86.4432L16.8078 86.4486C21.4333 88.5654 26.6373 89.6 32.38 89.6C38.1227 89.6 43.3267 88.5654 47.9523 86.4486C52.5901 84.3262 56.2658 81.2669 58.9092 77.2617C61.5634 73.2402 62.87 68.6336 62.87 63.51C62.87 58.4581 61.5618 53.9785 58.8825 50.1589C58.5439 49.6668 58.1888 49.1913 57.8171 48.7326C56.8648 47.5574 56.1942 45.5274 56.0778 43.2593C55.9614 40.9918 56.4212 38.9217 57.2515 37.6733C59.6166 34.1642 60.78 30.1398 60.78 25.67C60.78 21.3585 59.6971 17.3712 57.525 13.751C55.3141 10.0662 51.9874 7.21863 47.6647 5.17127C43.3653 3.02626 38.2452 2 32.38 2C26.4433 2 21.283 3.02568 16.979 5.17446C12.725 7.22531 9.4411 10.0742 7.23501 13.751C5.06292 17.3712 3.98 21.3585 3.98 25.67C3.98 29.6533 4.81497 33.2472 6.54776 36.3919C7.46611 38.0585 7.95911 40.6291 7.85526 43.3342C7.75117 46.0457 7.06213 48.5183 5.99317 50.0407C3.30639 53.8674 2 58.3884 2 63.51C2 68.6336 3.30663 73.2402 5.96078 77.2617C8.59865 81.2585 12.2308 84.318 16.7959 86.4432ZM21.7305 54.4166L21.7356 54.4126C24.3867 52.3297 27.8799 51.21 32.38 51.21C36.8849 51.21 40.2807 52.3314 42.7672 54.3828L42.7766 54.3904L42.786 54.398C45.2512 56.3822 46.55 59.1799 46.55 63.07C46.55 66.6358 45.3049 69.4598 42.8121 71.7034L42.8027 71.7118L42.7934 71.7204C40.3979 73.9316 37.0102 75.15 32.38 75.15C27.6635 75.15 24.188 73.9605 21.7176 71.8041C19.2399 69.5694 17.99 66.7159 17.99 63.07C17.99 59.093 19.2966 56.3163 21.7305 54.4166ZM41.6384 19.2685C43.6673 21.0076 44.79 23.55 44.79 27.21C44.79 30.3107 43.6747 32.76 41.4117 34.7173C39.1206 36.6988 36.1634 37.75 32.38 37.75C28.5931 37.75 25.6343 36.7327 23.3469 34.8257C21.1666 32.8779 20.08 30.4298 20.08 27.32C20.08 23.5737 21.2108 21.0007 23.2316 19.2685C25.3381 17.4629 28.3107 16.45 32.38 16.45C36.5322 16.45 39.5375 17.4677 41.6384 19.2685Z" stroke="white" stroke-opacity="0.5" stroke-width="4"/>
</svg>
