<svg width="65" height="79" viewBox="0 0 65 79" fill="none" xmlns="http://www.w3.org/2000/svg">
<path d="M49.6443 60.3187C49.6443 66.0816 48.1739 70.7082 45.2332 74.1984C42.3742 77.6885 38.0448 79.4337 32.2451 79.4337C27.5889 79.4337 23.7088 78.3379 20.6047 76.1464C19.0272 74.9914 17.7345 73.6372 16.7266 72.0839C14.9648 69.3687 12.3135 67.015 9.07679 67.015V67.015C4.81996 67.015 1.46726 70.8729 3.20358 74.7595C4.88162 78.5156 7.37371 81.7376 10.6798 84.4254C16.0711 88.8085 23.2187 91 32.1225 91C38.8208 91 44.4572 89.6607 49.0316 86.9822C53.6877 84.3037 57.1594 80.6512 59.4466 76.0246C61.8155 71.3169 63 65.9599 63 59.9535C63 55.0023 62.0606 50.2946 60.1818 45.8304C58.3847 41.3662 55.3215 37.673 50.9921 34.751C46.7444 31.829 41.1897 30.368 34.3281 30.368C30.4888 30.368 26.8538 31.1391 23.4229 32.6813V32.6813C20.6176 33.973 15.8261 31.8843 15.8261 28.7959V20.2554C15.8261 16.8973 18.5483 14.1751 21.9064 14.1751H50.786C54.148 14.1751 56.8735 11.4496 56.8735 8.08755V8.08755C56.8735 4.72549 54.148 2 50.786 2H14.9605C8.33306 2 2.96047 7.37258 2.96047 14V45.4876C2.96047 49.7786 6.43903 53.2572 10.7301 53.2572V53.2572C14.0078 53.2572 16.7743 51.0661 18.7581 48.4568C19.701 47.2167 20.8067 46.1383 22.0751 45.2216C24.8524 43.1924 28.2424 42.1778 32.2451 42.1778" stroke="white" stroke-opacity="0.5" stroke-width="4" stroke-linecap="round"/>
</svg>
