<svg width="73" height="92" viewBox="0 0 73 92" fill="none" xmlns="http://www.w3.org/2000/svg">
<path d="M44.1212 2.85529C44.5935 2.17473 44.4247 1.2401 43.7442 0.767733C43.0636 0.29537 42.129 0.464149 41.6566 1.14471L2.19564 57.9985C1.09145 59.5894 0.5 61.4811 0.5 63.417C0.5 68.6624 4.75203 72.9222 10 72.9222H38.0529C41.6428 72.9222 44.5529 75.8324 44.5529 79.4222V83.1852C44.5529 87.7773 48.2756 91.5 52.8677 91.5C57.4599 91.5 61.1825 87.7773 61.1825 83.1852V77.0809C61.1825 74.7841 63.0445 72.9222 65.3413 72.9222C69.2949 72.9222 72.5 69.7171 72.5 65.7635V64.9809C72.5 61.0273 69.2949 57.8222 65.3413 57.8222C63.0445 57.8222 61.1825 55.9603 61.1825 53.6635V30.6611C61.1825 29.8327 60.511 29.1611 59.6825 29.1611C58.8541 29.1611 58.1825 29.8327 58.1825 30.6611V53.6635C58.1825 57.6171 61.3876 60.8222 65.3413 60.8222C67.6381 60.8222 69.5 62.6841 69.5 64.9809V65.7635C69.5 68.0603 67.6381 69.9222 65.3413 69.9222C61.3876 69.9222 58.1825 73.1273 58.1825 77.0809V83.1852C58.1825 86.1205 55.803 88.5 52.8677 88.5C49.9324 88.5 47.5529 86.1205 47.5529 83.1852V79.4222C47.5529 74.1755 43.2996 69.9222 38.0529 69.9222H10C6.41143 69.9222 3.5 67.0081 3.5 63.417C3.5 62.0919 3.90498 60.7972 4.66018 59.7091L44.1212 2.85529ZM30.7532 37.369L24.9693 46.0581C20.7665 52.3718 25.2928 60.8222 32.8774 60.8222H38.6614C43.9081 60.8222 48.1614 56.5689 48.1614 51.3222V42.6332C48.1614 33.2304 35.9635 29.5418 30.7532 37.369Z" stroke="grey" stroke-width="3" stroke-linecap="round"/>
</svg>
