<svg width="42" height="14" viewBox="0 0 42 14" fill="none" xmlns="http://www.w3.org/2000/svg">
<path d="M8.68 0.099999V1.96H2.78V6.06H7.38V7.92H2.78V14H0.5V0.099999H8.68ZM18.013 14L14.813 8.44H13.073V14H10.793V0.099999H15.593C16.6596 0.099999 17.5596 0.286666 18.293 0.659999C19.0396 1.03333 19.593 1.53333 19.953 2.16C20.3263 2.78667 20.513 3.48667 20.513 4.26C20.513 5.16667 20.2463 5.99333 19.713 6.74C19.193 7.47333 18.3863 7.97333 17.293 8.24L20.733 14H18.013ZM13.073 6.62H15.593C16.4463 6.62 17.0863 6.40667 17.513 5.98C17.953 5.55333 18.173 4.98 18.173 4.26C18.173 3.54 17.9596 2.98 17.533 2.58C17.1063 2.16667 16.4596 1.96 15.593 1.96H13.073V6.62ZM25.7097 1.94V6.02H30.5097V7.88H25.7097V12.14H31.1097V14H23.4297V0.0799992H31.1097V1.94H25.7097ZM36.198 1.94V6.02H40.998V7.88H36.198V12.14H41.598V14H33.918V0.0799992H41.598V1.94H36.198Z" fill="#04AF00"/>
</svg>
