<svg width="57" height="59" viewBox="0 0 57 59" fill="none" xmlns="http://www.w3.org/2000/svg">
<path d="M22.8481 13.4673L22.8481 13.4673C20.7485 14.3411 18.8419 15.624 17.2383 17.2417C15.6135 18.8305 14.3215 20.7301 13.4385 22.8283C12.5555 24.9266 12.0991 27.1812 12.0964 29.4595C12.0629 31.7445 12.4791 34.0136 13.3211 36.1365L13.7859 35.9522L13.3211 36.1365C14.1635 38.2605 15.4157 40.1962 17.0055 41.8322C20.2756 45.1979 24.6422 47.0814 29.2464 47.0814C35.1555 47.0814 40.4055 43.9254 43.545 39.3053H53.2457C49.3863 49.8205 39.9201 56.5 29.2464 56.5H29.1736C14.2357 56.3491 2.35053 44.3252 2.50142 29.3128L2.50142 29.3128C2.64893 14.4452 14.6888 2.49658 29.4693 2.5H29.4694H29.6979C35.5447 2.5599 41.2068 4.53844 45.8258 8.12654L38.8759 14.9729C36.1454 13.1648 32.9929 12.2265 29.6366 12.151L29.6366 12.1509H29.6254L29.4752 12.1509C29.475 12.1509 29.4749 12.1509 29.4748 12.1509C27.201 12.1456 24.9488 12.5931 22.8481 13.4673ZM37.3523 27.1736L53.2042 27.1802L50.2193 33.3748H34.3671L37.3523 27.1736Z" fill="white" fill-opacity="0.7" stroke="white"/>
</svg>
