<svg width="43" height="43" viewBox="0 0 43 43" fill="none" xmlns="http://www.w3.org/2000/svg">
<path d="M34.651 39.4163H8.34933C5.71558 39.4163 3.5835 37.2843 3.5835 34.6505V8.34884C3.5835 5.71509 5.71558 3.58301 8.34933 3.58301H34.6331C37.2847 3.58301 39.4168 5.71509 39.4168 8.34884V34.6326C39.4168 37.2843 37.2847 39.4163 34.651 39.4163Z" stroke="white" stroke-width="3" stroke-miterlimit="10" stroke-linecap="round" stroke-linejoin="round"/>
<path d="M28.6668 21.4997C28.6668 25.4593 25.4597 28.6663 21.5002 28.6663C17.5406 28.6663 14.3335 25.4593 14.3335 21.4997C14.3335 17.5401 17.5406 14.333 21.5002 14.333C25.4597 14.333 28.6668 17.5401 28.6668 21.4997Z" stroke="white" stroke-width="3" stroke-miterlimit="10" stroke-linecap="round" stroke-linejoin="round"/>
<path d="M34.0417 9.85384C34.0417 10.3555 33.6475 10.7497 33.1458 10.7497C32.6442 10.7497 32.25 10.3555 32.25 9.85384C32.25 9.35217 32.6442 8.95801 33.1458 8.95801C33.6475 8.95801 34.0417 9.35217 34.0417 9.85384Z" stroke="white" stroke-width="3" stroke-miterlimit="10" stroke-linecap="round" stroke-linejoin="round"/>
</svg>
