<svg width="43" height="43" viewBox="0 0 43 43" fill="none" xmlns="http://www.w3.org/2000/svg">
<path d="M34.345 39H8.655C6.0825 39 4 36.9175 4 34.345V8.655C4 6.0825 6.0825 4 8.655 4H34.3275C36.9175 4 39 6.0825 39 8.655V34.3275C39 36.9175 36.9175 39 34.345 39Z" stroke="white" stroke-width="3" stroke-miterlimit="10" stroke-linecap="round" stroke-linejoin="round"/>
<path d="M12 18V30V18Z" fill="black"/>
<path d="M12 18V30" stroke="white" stroke-width="3" stroke-miterlimit="10" stroke-linecap="round" stroke-linejoin="round"/>
<path d="M29.9983 30C29.9983 30 29.9983 22.1945 29.9983 22.1774C29.9983 21.1996 30.0483 20.0673 29.5984 19.1753C28.5986 17.151 25.949 18.1803 24.5326 19.0209C23.0662 19.8786 21.733 20.9765 20.4666 22.1088C20.3166 22.246 20.15 22.4004 20 22.5376V18.0088V30" stroke="white" stroke-width="3" stroke-miterlimit="10" stroke-linecap="round" stroke-linejoin="round"/>
<path d="M12.5 12C12.7761 12 13 11.7761 13 11.5C13 11.2239 12.7761 11 12.5 11C12.2239 11 12 11.2239 12 11.5C12 11.7761 12.2239 12 12.5 12Z" fill="black" stroke="white" stroke-width="3" stroke-miterlimit="10" stroke-linecap="round" stroke-linejoin="round"/>
</svg>
