<svg width="325" height="229" viewBox="0 0 325 229" fill="none" xmlns="http://www.w3.org/2000/svg">
<path d="M21.6074 168.438C23.6951 183.789 29.2274 195.67 38.2044 204.081C47.3902 212.493 59.7074 216.698 75.1562 216.698C96.2417 216.698 112.212 208.813 123.068 193.041C134.133 177.27 139.665 151.72 139.665 116.393L139.352 104.091C136.221 117.97 128.392 129.01 115.866 137.211C103.549 145.412 89.1436 149.512 72.651 149.512C50.1041 149.512 32.3589 142.783 19.4154 129.325C6.47178 115.867 0 97.2567 0 73.4945C0 52.466 5.94987 35.0124 17.8496 21.1336C29.9581 7.04454 48.1208 0 72.3378 0C102.818 0 123.695 9.77824 134.968 29.3347C146.45 48.8912 152.191 76.1231 152.191 111.03C152.191 149.512 146.241 178.847 134.342 199.034C122.442 219.012 102.505 229 74.5299 229C54.9058 229 39.457 223.533 28.1836 212.598C16.9101 201.453 10.2296 186.733 8.14192 168.438H21.6074ZM74.2168 137.526C84.8639 137.526 94.9891 135.318 104.592 130.902C114.196 126.276 121.92 119.547 127.766 110.715C133.82 101.883 136.847 91.1584 136.847 78.5413C136.847 66.5551 134.55 55.5152 129.958 45.4215C125.365 35.3278 118.162 27.2319 108.35 21.1336C98.7469 15.0354 86.7428 11.9862 72.3378 11.9862C54.5926 11.9862 40.2921 17.5588 29.4362 28.7039C18.7891 39.6387 13.4655 54.5689 13.4655 73.4945C13.4655 93.8921 18.7891 109.663 29.4362 120.809C40.0833 131.954 55.0102 137.526 74.2168 137.526Z" fill="white"/>
<path d="M194.416 168.438C196.504 183.789 202.036 195.67 211.013 204.081C220.199 212.493 232.516 216.698 247.965 216.698C269.05 216.698 285.021 208.813 295.877 193.041C306.942 177.27 312.474 151.72 312.474 116.393L312.161 104.091C309.029 117.97 301.201 129.01 288.674 137.211C276.357 145.412 261.952 149.512 245.46 149.512C222.913 149.512 205.168 142.783 192.224 129.325C179.28 115.867 172.809 97.2567 172.809 73.4945C172.809 52.466 178.759 35.0124 190.658 21.1336C202.767 7.04454 220.93 0 245.147 0C275.627 0 296.503 9.77824 307.777 29.3347C319.259 48.8912 325 76.1231 325 111.03C325 149.512 319.05 178.847 307.15 199.034C295.251 219.012 275.313 229 247.339 229C227.714 229 212.266 223.533 200.992 212.598C189.719 201.453 183.038 186.733 180.951 168.438H194.416ZM247.025 137.526C257.673 137.526 267.798 135.318 277.401 130.902C287.004 126.276 294.729 119.547 300.574 110.715C306.628 101.883 309.656 91.1584 309.656 78.5413C309.656 66.5551 307.359 55.5152 302.766 45.4215C298.173 35.3278 290.971 27.2319 281.159 21.1336C271.556 15.0354 259.551 11.9862 245.147 11.9862C227.401 11.9862 213.101 17.5588 202.245 28.7039C191.598 39.6387 186.274 54.5689 186.274 73.4945C186.274 93.8921 191.598 109.663 202.245 120.809C212.892 131.954 227.819 137.526 247.025 137.526Z" fill="white"/>
</svg>
