<svg width="38" height="80" viewBox="0 0 38 80" fill="none" xmlns="http://www.w3.org/2000/svg">
<path d="M0 20.1121V2C0 0.895431 0.89543 0 2 0H36C37.1046 0 38 0.895433 38 2V47.7341C38 48.8386 37.1046 49.7341 36 49.7341H35.7271C34.6226 49.7341 33.7271 48.8386 33.7271 47.734V6.38443C33.7271 5.27986 32.8317 4.38443 31.7271 4.38443H6.27286C5.16829 4.38443 4.27286 5.27986 4.27286 6.38443V15.7277C4.27286 16.8323 5.1683 17.7277 6.27287 17.7277H17.3133C18.4179 17.7277 19.3133 18.6231 19.3133 19.7277V118.616C19.3133 119.72 20.2088 120.616 21.3133 120.616H31.7271C32.8317 120.616 33.7271 119.72 33.7271 118.616V87.1748C33.7271 86.0702 34.6226 85.1748 35.7271 85.1748H36C37.1046 85.1748 38 86.0702 38 87.1748V123C38 124.105 37.1046 125 36 125H17.0405C15.9359 125 15.0405 124.105 15.0405 123V24.1121C15.0405 23.0076 14.145 22.1121 13.0405 22.1121H2C0.89543 22.1121 0 21.2167 0 20.1121Z" fill="white" fill-opacity="0.5"/>
</svg>
