<svg width="247" height="205" viewBox="0 0 247 205" fill="none" xmlns="http://www.w3.org/2000/svg">
<path d="M104.953 0.84178L104.839 0.5H104.478C67.8118 0.5 41.2556 14.253 24.9188 41.7994C8.6286 68.7607 0.5 102.563 0.5 143.176C0.5 163.498 4.24698 178.829 11.8205 189.091C19.415 199.381 30.8025 204.5 45.8913 204.5C67.74 204.5 82.8916 199.937 91.1551 190.648C99.8867 180.897 104.217 167.076 104.217 149.258C104.217 137.541 101.797 128.482 96.8841 122.151C91.9612 115.808 84.5915 112.276 74.8528 111.506C68.3376 110.753 63.5225 108.632 60.3337 105.201C57.1463 101.771 55.5217 96.9649 55.5217 90.7154C55.5217 73.302 59.7522 60.3345 68.1249 51.7183C76.495 43.1048 89.088 38.7547 106 38.7547H106.41L106.49 38.3528C108.015 30.7366 108.783 24.6172 108.783 20.0075C108.783 14.8631 107.497 8.46973 104.953 0.84178ZM242.67 0.841778L242.556 0.5H242.196C205.529 0.5 178.973 14.2531 162.636 41.7999C146.346 68.7611 138.217 102.563 138.217 143.176C138.217 163.498 141.964 178.829 149.538 189.091C157.132 199.381 168.52 204.5 183.609 204.5C205.457 204.5 220.609 199.937 228.872 190.648C237.604 180.897 241.935 167.076 241.935 149.258C241.935 137.541 239.514 128.482 234.602 122.151C229.679 115.808 222.309 112.276 212.57 111.506C206.055 110.753 201.24 108.632 198.051 105.201C194.864 101.771 193.239 96.9649 193.239 90.7154C193.239 73.302 197.47 60.3345 205.842 51.7183C214.212 43.1048 226.805 38.7547 243.717 38.7547H244.127L244.208 38.3528C245.732 30.7366 246.5 24.6172 246.5 20.0075C246.5 14.8631 245.215 8.46973 242.67 0.841778Z" fill="white" fill-opacity="0.05" stroke="black"/>
</svg>
