<svg width="62" height="77" viewBox="0 0 62 77" fill="none" xmlns="http://www.w3.org/2000/svg">
<path d="M13.7572 74.1268L30.9845 35.5647C34.5306 27.6269 28.7219 18.67 20.0281 18.67H9.335C4.17942 18.67 0 14.4906 0 9.335C0 4.17942 4.17942 0 9.33499 0H54.345C58.0315 0 61.02 2.9885 61.02 6.675V11.35C61.02 12.4546 60.1246 13.35 59.02 13.35C57.9154 13.35 57.02 12.4546 57.02 11.35V8.675C57.02 6.09307 54.9269 4 52.345 4H9.335C6.38856 4 4 6.38856 4 9.335C4 12.2814 6.38857 14.67 9.33501 14.67H26.1961C34.8899 14.67 40.6986 23.6269 37.1525 31.5647L17.413 75.7501C15.7108 79.5605 18.4991 83.86 22.6723 83.86C24.9611 83.86 27.0327 82.505 27.9499 80.4081L42.4921 47.1612C42.8006 46.4558 43.4975 46 44.2674 46C45.662 46 46.6 47.4291 46.045 48.7086L31.6124 81.9867C30.0659 85.5526 26.5501 87.86 22.6633 87.86C15.5964 87.86 10.8747 80.5792 13.7572 74.1268Z" fill="white" fill-opacity="0.5"/>
</svg>
