<svg width="68" height="79" viewBox="0 0 68 79" fill="none" xmlns="http://www.w3.org/2000/svg">
<path d="M44.751 16.8487L45.9899 15.2786L44.751 16.8487ZM19.581 21.6305L21.2554 22.7244L21.2595 22.7181L21.2636 22.7118L19.581 21.6305ZM25.0264 39.9622C25.977 39.3997 26.2916 38.1731 25.7292 37.2225C25.1667 36.2719 23.9401 35.9572 22.9894 36.5197L25.0264 39.9622ZM53.2987 37.1149C52.3293 36.5854 51.1142 36.942 50.5847 37.9114C50.0552 38.8808 50.4118 40.0959 51.3812 40.6254L53.2987 37.1149ZM62.332 49.1888L60.5584 50.1131L60.5651 50.126L60.572 50.1388L62.332 49.1888ZM62.4585 81.1513L60.6781 80.2402L60.6714 80.2532L60.665 80.2663L62.4585 81.1513ZM52.2134 92.0991L53.2053 93.8358L53.2173 93.8289L53.2292 93.8219L52.2134 92.0991ZM15.2806 90.3373L14.0417 91.9074L14.0566 91.9192L14.0717 91.9306L15.2806 90.3373ZM4.90909 74.1044L2.98243 74.6411L2.98544 74.6518L2.98856 74.6626L4.90909 74.1044ZM54.4901 8.79518L53.1183 10.2506L53.1247 10.2565L53.131 10.2624L54.4901 8.79518ZM21.3518 51.9572L22.6495 53.479L22.6524 53.4765L21.3518 51.9572ZM20.9723 79.0121L19.5267 80.3942L19.544 80.4122L19.5617 80.4299L20.9723 79.0121ZM47.5336 79.1379L46.0862 77.7577L46.0768 77.7676L46.0675 77.7776L47.5336 79.1379ZM47.6601 52.4605L46.1422 53.7629L46.1593 53.7828L46.1769 53.8022L47.6601 52.4605ZM61.0662 17.985L62.9035 17.1947L61.0662 17.985ZM15.9908 33.8573L17.9603 34.2052L15.9908 33.8573ZM47.8541 20.4739L46.1255 21.4798L47.8541 20.4739ZM49.5827 19.468C48.622 17.817 47.4263 16.4121 45.9899 15.2786L43.5121 18.4188C44.5251 19.2181 45.3982 20.23 46.1255 21.4798L49.5827 19.468ZM45.9899 15.2786C43.0727 12.9768 39.1606 11.9545 34.5059 11.9545V15.9545C38.6207 15.9545 41.5387 16.8617 43.5121 18.4188L45.9899 15.2786ZM34.5059 11.9545C27.2409 11.9545 21.5948 14.7974 17.8985 20.5493L21.2636 22.7118C24.1444 18.2289 28.4482 15.9545 34.5059 15.9545V11.9545ZM17.9067 20.5366C16.9778 21.9583 16.2334 24.0287 15.6232 26.2145C14.999 28.4505 14.4643 31.0009 14.0213 33.5095L17.9603 34.2052C18.3908 31.7677 18.8993 29.3555 19.4759 27.2901C20.0665 25.1745 20.6804 23.6045 21.2554 22.7244L17.9067 20.5366ZM51.3812 40.6254C55.3183 42.7759 58.3724 45.9188 60.5584 50.1131L64.1056 48.2644C61.5696 43.3985 57.9623 39.6623 53.2987 37.1149L51.3812 40.6254ZM60.572 50.1388C62.8285 54.3189 64 59.3886 64 65.4217H68C68 58.8711 66.7262 53.1188 64.092 48.2387L60.572 50.1388ZM64 65.4217C64 71.0198 62.8766 75.9438 60.6781 80.2402L64.2389 82.0623C66.7624 77.1308 68 71.5684 68 65.4217H64ZM60.665 80.2663C58.5654 84.5213 55.4255 87.8836 51.1977 90.3762L53.2292 93.8219C58.1081 90.9455 61.7982 87.0093 64.252 82.0363L60.665 80.2663ZM51.2215 90.3624C47.0307 92.756 41.9081 94 35.7707 94V98C42.4502 98 48.2895 96.6434 53.2053 93.8358L51.2215 90.3624ZM35.7707 94C27.3551 94 21.0038 92.1696 16.4896 88.7441L14.0717 91.9306C19.5074 96.0553 26.8161 98 35.7707 98V94ZM16.5195 88.7673C12.0072 85.2068 8.75674 80.1768 6.82962 73.5462L2.98856 74.6626C5.10888 81.9579 8.77274 87.7499 14.0417 91.9074L16.5195 88.7673ZM6.83575 73.5678C4.96119 66.8376 4 58.3495 4 48.0562H0C0 58.5679 0.978203 67.4453 2.98243 74.6411L6.83575 73.5678ZM4 48.0562C4 32.8795 6.69927 21.8552 11.79 14.6703C16.7911 7.61188 24.2871 4 34.6324 4V0C23.2228 0 14.4025 4.06415 8.52621 12.3578C2.73947 20.525 0 32.5288 0 48.0562H4ZM34.6324 4C42.7012 4 48.7776 6.15933 53.1183 10.2506L55.8619 7.33977C50.59 2.37079 43.4279 0 34.6324 0V4ZM53.131 10.2624C55.8457 12.777 57.8689 15.6133 59.229 18.7753L62.9035 17.1947C61.3095 13.4891 58.9487 10.1989 55.8492 7.32792L53.131 10.2624ZM34.5059 45.3012C28.9253 45.3012 24.0686 46.9986 20.0511 50.4378L22.6524 53.4765C25.8866 50.7078 29.7993 49.3012 34.5059 49.3012V45.3012ZM20.054 50.4354C15.9612 53.9256 14.0395 58.9509 14.0395 65.17H18.0395C18.0395 59.8122 19.6594 56.0288 22.6495 53.479L20.054 50.4354ZM14.0395 65.17C14.0395 71.3555 15.8085 76.5052 19.5267 80.3942L22.4179 77.6299C19.5591 74.6399 18.0395 70.5615 18.0395 65.17H14.0395ZM19.5617 80.4299C23.4003 84.2489 28.6402 86.0455 35.0119 86.0455V82.0455C29.4099 82.0455 25.2901 80.4865 22.3829 77.5942L19.5617 80.4299ZM35.0119 86.0455C40.7656 86.0455 45.514 84.2551 48.9997 80.4982L46.0675 77.7776C43.482 80.5642 39.8827 82.0455 35.0119 82.0455V86.0455ZM48.981 80.5181C52.5263 76.8003 54.2134 71.9054 54.2134 66.0509H50.2134C50.2134 71.1022 48.7807 74.932 46.0862 77.7577L48.981 80.5181ZM54.2134 66.0509C54.2134 59.9846 52.5916 54.9308 49.1433 51.1188L46.1769 53.8022C48.7997 56.7015 50.2134 60.708 50.2134 66.0509H54.2134ZM49.1779 51.1581C45.7445 47.1567 40.7299 45.3012 34.5059 45.3012V49.3012C39.9183 49.3012 43.6731 50.8853 46.1422 53.7629L49.1779 51.1581ZM59.229 18.7753C59.7293 19.9386 59.4985 21.0447 58.7798 21.9337C58.0303 22.8608 56.7436 23.5315 55.252 23.5315V27.5315C57.9198 27.5315 60.3618 26.3393 61.8905 24.4484C63.4499 22.5193 64.0465 19.8522 62.9035 17.1947L59.229 18.7753ZM14.0213 33.5095C13.4873 36.5325 15.5923 38.7869 17.664 39.8639C19.756 40.9515 22.6845 41.3479 25.0264 39.9622L22.9894 36.5197C22.1972 36.9885 20.8004 36.9862 19.5091 36.3148C18.1974 35.633 17.8608 34.7682 17.9603 34.2052L14.0213 33.5095ZM46.1255 21.4798C47.8984 24.5265 51.0368 27.5315 55.252 27.5315V23.5315C53.0837 23.5315 51.0204 21.9387 49.5827 19.468L46.1255 21.4798Z" fill="grey"/>
</svg>
