<svg width="63" height="82" viewBox="0 0 63 82" fill="none" xmlns="http://www.w3.org/2000/svg">
<path d="M40.52 36.68C37.16 38.76 32.24 39.84 25.76 39.92V39.92C23.9706 39.92 22.52 41.3706 22.52 43.16V48.08C22.52 49.8031 23.9169 51.2 25.64 51.2V51.2C33 51.2 38.44 52.4 41.96 54.8C45.56 57.12 47.36 61.08 47.36 66.68C47.36 70.92 46.04 74.4 43.4 77.12C40.76 79.76 37 81.08 32.12 81.08C27.08 81.08 23.08 79.76 20.12 77.12C18.6877 75.8038 17.5645 74.3098 16.7504 72.6377C15.2211 69.497 12.5002 66.68 9.0069 66.68V66.68C5.19275 66.68 2.04976 69.9131 3.03712 73.5972C4.38828 78.6388 7.00257 82.7331 10.88 85.88C16.48 90.28 23.6 92.48 32.24 92.48C38.16 92.48 43.24 91.44 47.48 89.36C51.72 87.2 54.92 84.28 57.08 80.6C59.24 76.92 60.32 72.72 60.32 68C60.32 62.08 59 57.24 56.36 53.48C53.7634 49.7031 50.1607 47.0871 45.552 45.632C45.4146 45.5886 45.32 45.4616 45.32 45.3176V45.3176C45.32 45.1759 45.4113 45.0505 45.5455 45.0048C49.1292 43.7828 52.2141 41.4479 54.8 38C57.44 34.48 58.76 30.24 58.76 25.28C58.76 20.96 57.72 17.08 55.64 13.64C53.56 10.2 50.48 7.47998 46.4 5.47998C42.32 3.47998 37.48 2.47998 31.88 2.47998C23.72 2.47998 17 4.55998 11.72 8.71999C8.33666 11.4267 5.95239 14.8276 4.56719 18.9228C3.29244 22.6915 6.56793 26.12 10.5464 26.12V26.12C13.974 26.12 16.695 23.4347 18.5448 20.5491C19.2023 19.5234 20.0074 18.5804 20.96 17.72C23.44 15.4 26.92 14.24 31.4 14.24" stroke="white" stroke-opacity="0.5" stroke-width="4" stroke-linecap="round"/>
</svg>
