<svg width="43" height="43" viewBox="0 0 43 43" fill="none" xmlns="http://www.w3.org/2000/svg">
<path d="M39.4167 10.5532C38.0909 11.1266 36.6575 11.5028 35.1884 11.6999C36.7113 10.8041 37.8759 9.38866 38.4134 7.70449C36.9979 8.54658 35.4213 9.11991 33.755 9.46033C32.4113 8.04491 30.4942 7.16699 28.3979 7.16699C24.3309 7.16699 21.0521 10.4099 21.0521 14.4053C21.0521 14.9787 21.1059 15.5341 21.2134 16.0537C15.1217 15.7491 9.71085 12.8824 6.07376 8.49282C5.44668 9.56782 5.07043 10.8041 5.07043 12.1478C5.07043 14.6562 6.37835 16.8778 8.33126 18.1499C7.14876 18.132 5.98418 17.7916 5.01668 17.2541V17.3257C5.01668 20.8374 7.56085 23.7578 10.8933 24.4387C10.3021 24.5999 9.63918 24.6716 8.95835 24.6716C8.49251 24.6716 8.00876 24.6537 7.56085 24.5462C8.51043 27.4128 11.2158 29.527 14.4229 29.5807C11.9325 31.5157 8.74335 32.6624 5.32126 32.6624C4.7121 32.6624 4.13876 32.6266 3.56543 32.5549C6.84418 34.6512 10.6963 35.8337 14.8529 35.8337C28.38 35.8337 35.7617 24.8149 35.7617 15.2474C35.7617 14.9249 35.7438 14.6203 35.7259 14.3157C37.195 13.2945 38.4134 12.0224 39.4167 10.5532Z" stroke="white" stroke-width="3" stroke-miterlimit="10" stroke-linecap="round" stroke-linejoin="round"/>
</svg>
