<svg width="61" height="81" viewBox="0 0 61 81" fill="none" xmlns="http://www.w3.org/2000/svg">
<path d="M28.2177 55.0763C23.9261 59.2162 18.0349 64.5277 10.5441 71.0109L4.4317 76.2799C2.96207 77.5468 2.11704 79.3909 2.11704 81.3311V81.3311C2.11704 85.0142 5.1028 88 8.78591 88H53.4346C56.5083 88 59 85.5083 59 82.4346V82.4346C59 79.3609 56.5083 76.8692 53.4346 76.8692H28.9475C26.4815 76.8692 25.322 73.8218 27.1643 72.1826V72.1826C33.2505 66.7929 38.2444 62.0672 42.1458 58.0055C46.1253 53.8656 49.5195 49.218 52.3285 44.0627C55.2156 38.8292 56.6591 33.4005 56.6591 27.7766C56.6591 19.9655 54.2402 13.7166 49.4025 9.02997C44.6427 4.34332 38.0103 2 29.5051 2C21.6242 2 15.1088 4.38238 9.95893 9.14714C5.65619 13.1231 3.09434 18.6169 2.27337 25.6285V25.6285C2.02379 27.7601 3.77029 29.5341 5.91642 29.5341H8.62398C12.1078 29.5341 14.8052 26.7039 15.8366 23.3763C16.5024 21.2283 17.5083 19.3753 18.8542 17.8174C21.4292 14.8492 25.0185 13.3651 29.6222 13.3651C34.3819 13.3651 37.8542 14.693 40.039 17.3488C42.3019 20.0045 43.4333 23.6757 43.4333 28.3624" stroke="white" stroke-opacity="0.5" stroke-width="4" stroke-linecap="round"/>
</svg>
